<?xml version="1.0" encoding="UTF-8"?>
<svg width="36px" height="36px" viewBox="0 0 36 36" version="1.1" xmlns="http://www.w3.org/2000/svg" xmlns:xlink="http://www.w3.org/1999/xlink">
    <!-- Generator: Sketch 46.2 (44496) - http://www.bohemiancoding.com/sketch -->
    <title>Dumbbells</title>
    <desc>Created with Sketch.</desc>
    <defs></defs>
    <g id="MVP-v.2.0.0---Main-flow" stroke="none" stroke-width="1" fill="none" fill-rule="evenodd">
        <g id="Dumbbells" fill-rule="nonzero" fill="#5E6B7D">
            <path d="M34.4799144,14.7955874 C34.1266386,14.3518257 33.6293964,14.0976915 33.1156857,14.0976915 L32.3432603,14.0976915 L32.3432603,13.4448391 C32.3432603,12.2720404 31.3700255,11.3172298 30.1742004,11.3172298 L29.1558101,11.3172298 L29.1558101,10.1121777 C29.1558101,9.54496354 28.9247199,8.99165166 28.52257,8.59348955 C27.72252,7.80217015 26.3396978,7.80217015 25.5396478,8.59348955 C25.1369666,8.99220776 24.9058765,9.54551963 24.9058765,10.1127338 L24.9058765,15.7665246 L11.0935923,15.7665246 L11.0935923,10.1127338 C11.0935923,9.54551963 10.8630334,8.99220776 10.4603522,8.59404564 C9.66030218,7.80272624 8.27748004,7.80272624 7.47743004,8.59404564 C7.07474883,8.99220776 6.84365869,9.54551963 6.84365869,10.1127338 L6.84365869,11.3177859 L5.70148904,11.3177859 C5.16440368,11.3177859 4.65653662,11.5207596 4.27085514,11.8894488 C3.88039249,12.2648112 3.6562085,12.7886502 3.6562085,13.3258354 L3.6562085,14.0976915 L2.89122045,14.0976915 C2.37485352,14.0976915 1.87548632,14.3529379 1.52114811,14.7983679 C1.18540335,15.220998 1,15.7765343 1,16.3620995 L1,19.6185763 C1,20.2041415 1.18540335,20.7596777 1.52167935,21.1823079 C1.87601756,21.6277379 2.37538476,21.8829843 2.89122045,21.8829843 L3.6562085,21.8829843 L3.6562085,22.6548404 C3.6562085,23.1920256 3.88039249,23.7158646 4.27191763,24.0923391 C4.65653662,24.4604723 5.16440368,24.663446 5.70148904,24.663446 L6.84365869,24.663446 L6.84365869,25.8684981 C6.84365869,26.4357123 7.07474883,26.9890241 7.4768988,27.3866301 C7.8769238,27.7820118 8.40657177,28 8.96862549,28 C9.53067921,28 10.0603272,27.7820118 10.4603522,27.3866301 C10.8630334,26.988468 11.0935923,26.4351562 11.0935923,25.8684981 L11.0935923,20.2147073 L24.9058765,20.2147073 L24.9058765,25.8684981 C24.9058765,26.4357123 25.1369666,26.9890241 25.5391166,27.3866301 C25.9391416,27.7820118 26.4687896,28 27.0308433,28 C27.592897,28 28.122545,27.7820118 28.52257,27.3866301 C28.9247199,26.988468 29.1558101,26.4351562 29.1558101,25.8684981 L29.1558101,24.663446 L30.1742004,24.663446 C31.3700255,24.663446 32.3432603,23.7091915 32.3432603,22.5358367 L32.3432603,21.8829843 L33.1156857,21.8829843 C33.6293964,21.8829843 34.1266386,21.628294 34.4804456,21.1850884 C34.8151279,20.7641265 35,20.2113707 35,19.6280298 L35,16.353202 C34.9994688,15.7698612 34.8151279,15.2165493 34.4799144,14.7955874 Z M2.89122045,20.7707996 C2.68881736,20.7707996 2.49225793,20.6640299 2.33819784,20.4705097 C2.16288808,20.2508533 2.0624834,19.9399976 2.0624834,19.6185763 L2.0624834,16.3620995 C2.0624834,16.0406782 2.16288808,15.7303786 2.33819784,15.5101661 C2.49225793,15.3166459 2.68881736,15.2098762 2.89122045,15.2098762 L3.6562085,15.2098762 L3.6562085,20.7707996 L2.89122045,20.7707996 Z M5.70148904,23.5512613 C5.43427446,23.5512613 5.17449727,23.4494964 4.9901564,23.272659 C4.81484664,23.104163 4.7186919,22.8850627 4.7186919,22.6548404 L4.7186919,21.3268919 L4.7186919,14.6537839 L4.7186919,13.3258354 C4.7186919,13.0956131 4.81484664,12.8759567 4.98909392,12.7085729 C5.17502852,12.5311794 5.43427446,12.4294145 5.70148904,12.4294145 L6.84365869,12.4294145 L6.84365869,23.5512613 L5.70148904,23.5512613 Z M10.0311089,25.8684981 C10.0311089,26.1348663 9.92432931,26.3867761 9.73095733,26.5780719 C9.33252605,26.9717853 8.60525617,26.9717853 8.20682489,26.5780719 C8.01292167,26.3867761 7.90614209,26.1343102 7.90614209,25.8684981 L7.90614209,24.1073536 L7.90614209,11.8733222 L7.90614209,10.1121777 C7.90614209,9.8458095 8.01292167,9.59389967 8.20629365,9.4026039 C8.40550929,9.20574721 8.6833487,9.09286047 8.96862549,9.09286047 C9.25390228,9.09286047 9.53174169,9.20574721 9.73095733,9.4026039 C9.92432931,9.59389967 10.0311089,9.84636559 10.0311089,10.1127338 L10.0311089,16.322617 L10.0311089,19.659171 L10.0311089,25.8684981 Z M11.0935923,19.1025226 L11.0935923,16.8781532 L24.9058765,16.8781532 L24.9058765,19.1025226 L11.0935923,19.1025226 Z M28.0933267,25.8684981 C28.0933267,26.1348663 27.9865471,26.3867761 27.7931751,26.5780719 C27.3947438,26.9717853 26.6674739,26.9717853 26.2690427,26.5780719 C26.0751395,26.3867761 25.9683599,26.1343102 25.9683599,25.8684981 L25.9683599,19.6586149 L25.9683599,16.3220609 L25.9683599,10.1127338 C25.9683599,9.84636559 26.0751395,9.59445576 26.2685114,9.40315999 C26.4677271,9.20630331 26.7455665,9.09341656 27.0308433,9.09341656 C27.3161201,9.09341656 27.5939595,9.20630331 27.7931751,9.40315999 C27.9865471,9.59389967 28.0933267,9.84636559 28.0933267,10.1127338 L28.0933267,11.8738783 L28.0933267,24.1079097 L28.0933267,25.8684981 Z M31.2807769,22.5358367 C31.2807769,23.0958217 30.7845971,23.5512613 30.1742004,23.5512613 L29.1558101,23.5512613 L29.1558101,12.4294145 L30.1742004,12.4294145 C30.7840659,12.4294145 31.2807769,12.8848541 31.2807769,13.4448391 L31.2807769,14.6537839 L31.2807769,21.3268919 L31.2807769,22.5358367 Z M33.9369854,19.6274737 C33.9369854,19.9466707 33.8371119,20.2541898 33.6639271,20.4727341 C33.5109295,20.665142 33.3159638,20.7707996 33.1156857,20.7707996 L32.3432603,20.7707996 L32.3432603,15.2098762 L33.1156857,15.2098762 C33.3159638,15.2098762 33.5109295,15.3155337 33.6639271,15.5079417 C33.8376432,15.7259299 33.9369854,16.034005 33.9369854,16.353202 L33.9369854,19.6274737 Z" id="Dumbbells---icon"></path>
        </g>
    </g>
</svg>