<?xml version="1.0" encoding="UTF-8"?>
<svg width="24px" height="24px" viewBox="0 0 24 24" version="1.1" xmlns="http://www.w3.org/2000/svg" xmlns:xlink="http://www.w3.org/1999/xlink">
    <!-- Generator: Sketch 46.2 (44496) - http://www.bohemiancoding.com/sketch -->
    <title>Artboard</title>
    <desc>Created with Sketch.</desc>
    <defs></defs>
    <g id="MVP-v.2.0.0---Main-flow" stroke="none" stroke-width="1" fill="none" fill-rule="evenodd" stroke-linecap="round" stroke-linejoin="round">
        <g id="Artboard" stroke="#5E6B7D" stroke-width="2" fill="#5E6B7D">
            <path d="M15.2238407,6.84828676 L15.3785166,6.85933504 L15.3785166,8.39386189 C15.3785166,10.3887468 13.7928389,11.9744246 11.797954,11.9744246 C9.80306905,11.9744246 8.2173913,10.3887468 8.2173913,8.39386189 L8.2173913,6.47570332 L8.2173913,5.32480818 C8.2173913,4.04603581 9.24040921,2.81841432 10.4680307,2.56265985 L13.3324808,2 L13.3324808,3.53452685 C14.4578005,3.53452685 15.3785166,4.45524297 15.3785166,5.58056266 L15.3785166,6.60358056 L15.1025642,6.60358056 C15.1482056,6.68203413 15.1887831,6.76375492 15.2238407,6.84828676 Z M13.0433671,6.69253864 L12.8209719,6.60358056 L11.797954,6.60358056 L13.0433671,6.69253864 Z M14.713555,13.3043478 C17.9360614,13.7647059 20.3913043,16.5268542 20.3913043,19.9028133 L20.3913043,20.4143223 C20.3913043,20.9769821 19.9309463,21.4373402 19.3682864,21.4373402 L4.0230179,21.4373402 C3.46035806,21.4373402 3,20.9769821 3,20.4143223 L3,19.9028133 C3,16.5780051 5.45524297,13.7647059 8.67774936,13.3043478 L11.6956522,16.3222506 L14.713555,13.3043478 Z" id="Combined-Shape"></path>
        </g>
    </g>
</svg>