<svg width="24" height="24" viewBox="0 0 24 24" xmlns="http://www.w3.org/2000/svg"><title>Artboard</title><g fill="none" fill-rule="evenodd"><path d="M23.881 12c0-.655-.537-1.185-1.2-1.185H6.6c-.663 0-1.2.53-1.2 1.185s.537 1.185 1.2 1.185h16.081c.663 0 1.2-.53 1.2-1.185zm-1.263 5.63H10.2c-.663 0-1.2.53-1.2 1.185C9 19.469 9.537 20 10.2 20h12.418c.662 0 1.2-.53 1.2-1.185s-.538-1.185-1.2-1.185zM22.8 6.37H1.2C.537 6.37 0 5.84 0 5.185 0 4.531.537 4 1.2 4h21.6c.663 0 1.2.53 1.2 1.185s-.537 1.185-1.2 1.185z" fill="#000"/></g></svg>