<?xml version="1.0" encoding="UTF-8"?>
<svg width="24px" height="24px" viewBox="0 0 24 24" version="1.1" xmlns="http://www.w3.org/2000/svg" xmlns:xlink="http://www.w3.org/1999/xlink">
    <!-- Generator: Sketch 46.2 (44496) - http://www.bohemiancoding.com/sketch -->
    <title>Artboard 2</title>
    <desc>Created with Sketch.</desc>
    <defs></defs>
    <g id="MVP-v.2.0.0---Main-flow" stroke="none" stroke-width="1" fill="none" fill-rule="evenodd">
        <g id="Artboard-2" fill-rule="nonzero" fill="#5E6B7D">
            <path d="M22,5.91125419 C21.2638877,6.23558606 20.4740498,6.45554423 19.6441792,6.5537439 C20.4915335,6.04919515 21.140162,5.24891007 21.4475808,4.29823845 C20.6527429,4.76548302 19.7753885,5.10476256 18.8405504,5.28868386 C18.0919544,4.4946053 17.0271487,4 15.8461011,4 C13.5802804,4 11.7431205,5.82676737 11.7431205,8.07853591 C11.7431205,8.39789606 11.7793624,8.70981488 11.8493625,9.00808582 C8.44001052,8.8378124 5.41683565,7.21361841 3.39346633,4.74559612 C3.03977294,5.34707724 2.83856346,6.04792785 2.83856346,6.79605858 C2.83856346,8.21150515 3.56343393,9.46041522 4.66323965,10.1910962 C3.99085293,10.1687397 3.35846627,9.98481837 2.80483792,9.67910609 L2.80483792,9.73005813 C2.80483792,11.7059447 4.21957879,13.3549973 6.09546421,13.7303138 C5.75177084,13.8222744 5.38935194,13.8732265 5.01441669,13.8732265 C4.74948162,13.8732265 4.49327205,13.847133 4.24206249,13.7974158 C4.76444896,15.4191402 6.27919,16.5984461 8.07386613,16.6307785 C6.67036711,17.7243629 4.90069101,18.3742939 2.97856369,18.3742939 C2.64738668,18.3742939 2.321177,18.354407 2,18.3183701 C3.815918,19.4778217 5.9717712,20.1538462 8.28883381,20.1538462 C15.8361664,20.1538462 19.9616633,13.9378589 19.9616633,8.54704778 L19.9479051,8.01890772 C20.7539849,7.44722445 21.451339,6.72895656 22,5.91125419 Z" id="Shape"></path>
        </g>
    </g>
</svg>